<svg width="248" height="280" viewBox="0 0 248 280" fill="none" xmlns="http://www.w3.org/2000/svg">
<g filter="url(#filter0_i_1_10)">
<rect y="39" width="248" height="241" rx="50" fill="#D9D9D9"/>
</g>
<path d="M82.56 238V84H145.26C152.447 86.64 158.827 91.26 164.4 97.86C169.973 104.46 172.76 112.453 172.76 121.84C172.76 138.413 167.333 150 156.48 156.6V157.48C169.973 164.96 176.72 176.693 176.72 192.68C176.72 211.013 167.407 226.12 148.78 238H82.56ZM112.48 147.58H134.26C140.713 143.62 143.94 137.607 143.94 129.54C143.94 121.473 140.933 115.093 134.92 110.4H112.48V147.58ZM112.48 212.48H135.14C137.78 210.573 140.127 207.567 142.18 203.46C144.38 199.353 145.48 195.247 145.48 191.14C145.48 187.033 144.6 183.293 142.84 179.92C141.08 176.547 138.88 174.053 136.24 172.44H112.48V212.48Z" fill="black"/>
<line x1="97.5" y1="84" x2="97.5" y2="238" stroke="#008373" stroke-width="30"/>
<line x1="112" y1="225" x2="149" y2="225" stroke="#008373" stroke-width="26"/>
<defs>
<filter id="filter0_i_1_10" x="0" y="39" width="248" height="241" filterUnits="userSpaceOnUse" color-interpolation-filters="sRGB">
<feFlood flood-opacity="0" result="BackgroundImageFix"/>
<feBlend mode="normal" in="SourceGraphic" in2="BackgroundImageFix" result="shape"/>
<feColorMatrix in="SourceAlpha" type="matrix" values="0 0 0 0 0 0 0 0 0 0 0 0 0 0 0 0 0 0 127 0" result="hardAlpha"/>
<feOffset/>
<feGaussianBlur stdDeviation="25"/>
<feComposite in2="hardAlpha" operator="arithmetic" k2="-1" k3="1"/>
<feColorMatrix type="matrix" values="0 0 0 0 0 0 0 0 0 0 0 0 0 0 0 0 0 0 0.72 0"/>
<feBlend mode="normal" in2="shape" result="effect1_innerShadow_1_10"/>
</filter>
</defs>
</svg>
