<svg width="760" height="315" viewBox="0 0 760 315" fill="none" xmlns="http://www.w3.org/2000/svg">
<g filter="url(#filter0_i_2_22)">
<rect y="39" width="248" height="241" rx="50" fill="#D9D9D9"/>
</g>
<path d="M82.56 238V84H145.26C152.447 86.64 158.827 91.26 164.4 97.86C169.973 104.46 172.76 112.453 172.76 121.84C172.76 138.413 167.333 150 156.48 156.6V157.48C169.973 164.96 176.72 176.693 176.72 192.68C176.72 211.013 167.407 226.12 148.78 238H82.56ZM112.48 147.58H134.26C140.713 143.62 143.94 137.607 143.94 129.54C143.94 121.473 140.933 115.093 134.92 110.4H112.48V147.58ZM112.48 212.48H135.14C137.78 210.573 140.127 207.567 142.18 203.46C144.38 199.353 145.48 195.247 145.48 191.14C145.48 187.033 144.6 183.293 142.84 179.92C141.08 176.547 138.88 174.053 136.24 172.44H112.48V212.48Z" fill="black"/>
<line x1="97.5" y1="84" x2="97.5" y2="238" stroke="#008373" stroke-width="30"/>
<line x1="112" y1="225" x2="149" y2="225" stroke="#008373" stroke-width="26"/>
<path d="M296.32 140V77H321.97C324.91 78.08 327.52 79.97 329.8 82.67C332.08 85.37 333.22 88.64 333.22 92.48C333.22 99.26 331 104 326.56 106.7V107.06C332.08 110.12 334.84 114.92 334.84 121.46C334.84 128.96 331.03 135.14 323.41 140H296.32ZM308.56 103.01H317.47C320.11 101.39 321.43 98.93 321.43 95.63C321.43 92.33 320.2 89.72 317.74 87.8H308.56V103.01ZM308.56 129.56H317.83C318.91 128.78 319.87 127.55 320.71 125.87C321.61 124.19 322.06 122.51 322.06 120.83C322.06 119.15 321.7 117.62 320.98 116.24C320.26 114.86 319.36 113.84 318.28 113.18H308.56V129.56ZM375.248 103.46H368.498C367.598 104.54 366.848 106.04 366.248 107.96C365.708 109.88 365.438 111.74 365.438 113.54H378.308C378.428 111.74 378.188 109.88 377.588 107.96C376.988 105.98 376.208 104.48 375.248 103.46ZM387.488 130.55V140H364.628C360.428 137.18 357.458 133.7 355.718 129.56C354.038 125.36 353.198 121.13 353.198 116.87C353.198 107.03 356.918 99.41 364.358 94.01H378.938C382.958 96.95 385.688 100.07 387.128 103.37C388.568 106.67 389.288 110 389.288 113.36C389.288 116.72 389.018 119.6 388.478 122H366.068C366.248 123.38 366.758 124.97 367.598 126.77C368.498 128.51 369.458 129.77 370.478 130.55H387.488ZM428.807 94.01H438.347C440.987 97.37 442.787 100.73 443.747 104.09C444.707 107.45 445.187 111.65 445.187 116.69V140H433.217V115.79C433.217 110.09 432.437 105.98 430.877 103.46H420.797V140H408.827V94.01H418.187L419.807 97.25C421.127 96.05 422.357 95.21 423.497 94.73C424.697 94.25 426.467 94.01 428.807 94.01ZM466.097 94.01H477.887V135.41C477.887 139.97 477.347 143.6 476.267 146.3C475.187 149 472.937 151.4 469.517 153.5H457.637V144.05H463.847C465.347 143.15 466.097 141.71 466.097 139.73V94.01ZM466.097 77H477.887V90.05H466.097V77ZM520.798 119.21H511.168C509.908 120.77 509.278 122.72 509.278 125.06C509.278 127.4 509.938 129.23 511.258 130.55H520.798V119.21ZM501.448 94.01H523.768C527.368 96.17 529.738 98.66 530.878 101.48C532.018 104.24 532.588 108.02 532.588 112.82V126.32C532.588 131.3 532.708 135.86 532.948 140H522.688L521.068 136.76C518.728 138.92 515.428 140 511.168 140H505.498C500.398 136.64 497.848 131.81 497.848 125.51C497.848 119.15 500.458 114.14 505.678 110.48H514.138C516.478 110.48 518.668 111.2 520.708 112.64V108.14C520.708 105.8 519.688 104.24 517.648 103.46H501.448V94.01ZM573.809 94.01H580.199L582.449 97.16C583.709 96.02 584.909 95.21 586.049 94.73C587.249 94.25 589.019 94.01 591.359 94.01H601.349C603.989 97.37 605.789 100.73 606.749 104.09C607.709 107.45 608.189 111.65 608.189 116.69V140H596.219V115.79C596.219 110.27 595.379 106.16 593.699 103.46H585.059C586.379 106.04 587.039 109.55 587.039 113.99V140H575.069V115.79C575.069 110.09 574.289 105.98 572.729 103.46H565.799V140H553.829V94.01H563.189L564.809 97.25C566.129 96.05 567.359 95.21 568.499 94.73C569.699 94.25 571.469 94.01 573.809 94.01ZM629.028 140V94.01H640.908V140H629.028ZM629.028 77H640.908V89.15H629.028V77ZM682.108 94.01H691.648C694.288 97.37 696.088 100.73 697.048 104.09C698.008 107.45 698.488 111.65 698.488 116.69V140H686.518V115.79C686.518 110.09 685.738 105.98 684.178 103.46H674.098V140H662.128V94.01H671.488L673.108 97.25C674.428 96.05 675.658 95.21 676.798 94.73C677.998 94.25 679.768 94.01 682.108 94.01Z" fill="black"/>
<path d="M297.56 245V178.5H310.575V233.98H330.335V245H297.56ZM350.578 245V196.455H363.118V245H350.578ZM350.578 178.5H363.118V191.325H350.578V178.5ZM407.462 206.43H400.337C399.387 207.57 398.595 209.153 397.962 211.18C397.392 213.207 397.107 215.17 397.107 217.07H410.692C410.818 215.17 410.565 213.207 409.932 211.18C409.298 209.09 408.475 207.507 407.462 206.43ZM420.382 235.025V245H396.252C391.818 242.023 388.683 238.35 386.847 233.98C385.073 229.547 384.187 225.082 384.187 220.585C384.187 210.198 388.113 202.155 395.967 196.455H411.357C415.6 199.558 418.482 202.852 420.002 206.335C421.522 209.818 422.282 213.333 422.282 216.88C422.282 220.427 421.997 223.467 421.427 226H397.772C397.962 227.457 398.5 229.135 399.387 231.035C400.337 232.872 401.35 234.202 402.427 235.025H420.382ZM444.829 223.815V206.43H438.274V196.455H444.829V183.25H457.464V196.455H465.254V206.43H457.464V226.855C457.464 230.718 458.129 233.442 459.459 235.025H465.254V245H451.764C448.407 241.897 446.38 238.54 445.684 234.93C445.114 231.89 444.829 228.185 444.829 223.815ZM485.538 230.94H499.218V245H485.538V230.94Z" fill="#008373"/>
<defs>
<filter id="filter0_i_2_22" x="0" y="39" width="248" height="241" filterUnits="userSpaceOnUse" color-interpolation-filters="sRGB">
<feFlood flood-opacity="0" result="BackgroundImageFix"/>
<feBlend mode="normal" in="SourceGraphic" in2="BackgroundImageFix" result="shape"/>
<feColorMatrix in="SourceAlpha" type="matrix" values="0 0 0 0 0 0 0 0 0 0 0 0 0 0 0 0 0 0 127 0" result="hardAlpha"/>
<feOffset/>
<feGaussianBlur stdDeviation="25"/>
<feComposite in2="hardAlpha" operator="arithmetic" k2="-1" k3="1"/>
<feColorMatrix type="matrix" values="0 0 0 0 0 0 0 0 0 0 0 0 0 0 0 0 0 0 0.72 0"/>
<feBlend mode="normal" in2="shape" result="effect1_innerShadow_2_22"/>
</filter>
</defs>
</svg>
